<svg id="section2-pipe" class="pipe" xmlns="http://www.w3.org/2000/svg" viewBox="0 0 964.8 1128"><path class="background" d="M959 0v180c0 13.3-10.7 24-24 24H365l-177.1-1H29c-13.3 0-24 10.7-24 24v243c0 13.3 10.7 24 24 24h426c13.3 0 24 10.7 24 24v334c0 13.2 10.7 24 24 24h432.9c13.2 0 24 10.7 24 24v228"/><path class="foreground" d="M959 0v180c0 13.3-10.7 24-24 24H365l-177.1-1H29c-13.3 0-24 10.7-24 24v243c0 13.3 10.7 24 24 24h426c13.3 0 24 10.7 24 24v334c0 13.2 10.7 24 24 24h432.9c13.2 0 24 10.7 24 24v228"/></svg>