<svg id="section6-pipe" class="pipe" xmlns="http://www.w3.org/2000/svg" viewBox="0 0 766 1729"><path class="background" d="M5 0v29.7C5 43.1 15.9 54 29.3 54h168.2c13 0 23.6 10.6 23.6 23.6V620c0 13.3 10.8 24 24 24h492.4c13 0 23.6 10.6 23.6 23.6v456.8c0 13-10.6 23.6-23.6 23.6h-600c-13 0-23.6 10.6-23.6 23.6V1729"/><path class="foreground" d="M5 0v29.7C5 43.1 15.9 54 29.3 54h168.2c13 0 23.6 10.6 23.6 23.6V620c0 13.3 10.8 24 24 24h492.4c13 0 23.6 10.6 23.6 23.6v456.8c0 13-10.6 23.6-23.6 23.6h-600c-13 0-23.6 10.6-23.6 23.6V1729"/></svg>