<svg id="shape-3c" xmlns="http://www.w3.org/2000/svg" viewBox="0 0 455.9 975.9"><path class="pattern-container" fill="url(#halftone)" d="M455.9 823.2V718.5h-.5V475.2H48v279.2c0 28.7 6 56 16.7 80.8L0 811.2v104.7c0 33.1 26.9 60 60 60s60-26.9 60-60v-6.1c35.5 30.1 81.5 48.3 131.7 48.3 64.5 0 122-30 159.4-76.8 25.8-6.7 44.8-30.2 44.8-58.1z"/><path class="middle" fill="#393839" d="M455.4 191.5H48v279.2c0 112.5 91.2 203.7 203.7 203.7s203.7-91.2 203.7-203.7V191.5z"/><circle class="top" fill="#2e5eab" cx="251.7" cy="204.2" r="203.7"/></svg>