<svg id="shape-6c" xmlns="http://www.w3.org/2000/svg" viewBox="0 0 455.9 1023.9"><path class="pattern-container" fill="url(#halftone)" d="M455.9 766.6h-.9c.2-4 .4-8.1.4-12.2V475.2H48v279.2c0 48.9 17.2 93.7 45.9 128.8L0 859.2v104.7c0 33.1 26.9 60 60 60s60-26.9 60-60v-54.1c35.5 30.1 81.5 48.3 131.7 48.3 42.3 0 81.6-12.9 114.2-35 8.8 5.1 19.1 8.1 30.1 8.1 33.1 0 60-26.9 60-60-.1-.1-.1-104.6-.1-104.6z"/><path class="middle" fill="#393839" d="M455.4 191.5H48v279.2c0 112.5 91.2 203.7 203.7 203.7s203.7-91.2 203.7-203.7V191.5z"/><circle class="top" fill="#ece8e5" cx="251.7" cy="204.2" r="203.7"/></svg>