<svg id="Layer_1" xmlns="http://www.w3.org/2000/svg" viewBox="0 0 32 40.1"><path d="M15 39.2c0-.5.4-.9 1-.9.5 0 .9.4.9.9s-.4.9-.9.9c-.6 0-1-.4-1-.9zm.9.8c.4 0 .8-.3.8-.8 0-.4-.3-.8-.8-.8-.4 0-.8.3-.8.8 0 .4.4.8.8.8zm-.2-.3h-.2v-1.1h.5c.3 0 .4.1.4.3 0 .2-.1.3-.3.3l.3.5h-.2l-.3-.5h-.2v.5zm.2-.6c.1 0 .3 0 .3-.2 0-.1-.1-.2-.2-.2h-.2v.3h.1z"/><path d="M27.2 8.6C26 7.4 24.6 6.3 23 5.5v4.8c-.2-.4-.5-.8-.8-1.1-1-1-2.3-1.6-3.7-1.6-1.5 0-2.8.6-3.7 1.6-.3.3-.6.6-.8 1V2.7h4V0h-6.8v40h2.7v-3.4c.6.1 1.2.1 1.8.1 9 0 16.3-7.4 16.3-16.4 0-4.6-1.8-8.7-4.8-11.7zm-1.8 1.8c1.3 1.3 2.3 2.8 3 4.4.1.1.1.2.2.4h-3.4v-5l.2.2zm-7-.7c1.8 0 3.2 1.5 3.2 3.3 0 1.8-1.5 3.3-3.3 3.3H18c-.1 0-.2 0-.3-.1-.2 0-.4-.1-.6-.2-.4-.2-.7-.4-1-.7-.6-.6-1-1.4-1-2.3 0-1.8 1.5-3.3 3.3-3.3zm-2.7 24.4l-1.9-.1V22.7H18v-2.3h-4.2v-4.6c.8 1.4 2.3 2.4 4.1 2.6h.5c1.5 0 2.8-.6 3.8-1.6.3-.3.6-.7.8-1.1v5.2h2.2v-3.4h4.1v.1c.2.8.2 1.7.2 2.6 0 7.7-6.2 13.9-13.8 13.9z"/><path d="M6.8 20.3H4.7v2.3h2.1v7.6l-.2-.2c-2.5-2.5-4.1-6-4.1-9.8 0-3.8 1.5-7.3 4.1-9.8.7-.8 1.5-1.4 2.3-2V5.5c-5.3 2.7-9 8.3-9 14.7 0 4.5 1.8 8.6 4.8 11.6C6 33 7.4 34.1 9 34.9V20.3H6.8z"/></svg>