<svg xmlns="http://www.w3.org/2000/svg"><symbol id="bent-arrow" viewBox="0 0 257.2 36.5"><style>.st0{fill:none;stroke:#000;stroke-miterlimit:10}</style><path id="line" class="st0" d="M0 .5h252.2v28.8"/><path id="arrowhead" d="M247.3 27.9l4.9 8.6 5-8.6z"/></symbol><symbol id="footer-arrow" viewBox="0 0 54 10"><path id="icon" d="M54 5l-8.6-5v4.5H0v1h45.4V10z"/></symbol><symbol id="gfoa-logo" viewBox="0 0 32 40.1"><path d="M15 39.2c0-.5.4-.9 1-.9.5 0 .9.4.9.9s-.4.9-.9.9c-.6 0-1-.4-1-.9zm.9.8c.4 0 .8-.3.8-.8 0-.4-.3-.8-.8-.8-.4 0-.8.3-.8.8 0 .4.4.8.8.8zm-.2-.3h-.2v-1.1h.5c.3 0 .4.1.4.3 0 .2-.1.3-.3.3l.3.5h-.2l-.3-.5h-.2v.5zm.2-.6c.1 0 .3 0 .3-.2 0-.1-.1-.2-.2-.2h-.2v.3h.1z"/><path d="M27.2 8.6C26 7.4 24.6 6.3 23 5.5v4.8c-.2-.4-.5-.8-.8-1.1-1-1-2.3-1.6-3.7-1.6-1.5 0-2.8.6-3.7 1.6-.3.3-.6.6-.8 1V2.7h4V0h-6.8v40h2.7v-3.4c.6.1 1.2.1 1.8.1 9 0 16.3-7.4 16.3-16.4 0-4.6-1.8-8.7-4.8-11.7zm-1.8 1.8c1.3 1.3 2.3 2.8 3 4.4.1.1.1.2.2.4h-3.4v-5l.2.2zm-7-.7c1.8 0 3.2 1.5 3.2 3.3 0 1.8-1.5 3.3-3.3 3.3H18c-.1 0-.2 0-.3-.1-.2 0-.4-.1-.6-.2-.4-.2-.7-.4-1-.7-.6-.6-1-1.4-1-2.3 0-1.8 1.5-3.3 3.3-3.3zm-2.7 24.4l-1.9-.1V22.7H18v-2.3h-4.2v-4.6c.8 1.4 2.3 2.4 4.1 2.6h.5c1.5 0 2.8-.6 3.8-1.6.3-.3.6-.7.8-1.1v5.2h2.2v-3.4h4.1v.1c.2.8.2 1.7.2 2.6 0 7.7-6.2 13.9-13.8 13.9z"/><path d="M6.8 20.3H4.7v2.3h2.1v7.6l-.2-.2c-2.5-2.5-4.1-6-4.1-9.8 0-3.8 1.5-7.3 4.1-9.8.7-.8 1.5-1.4 2.3-2V5.5c-5.3 2.7-9 8.3-9 14.7 0 4.5 1.8 8.6 4.8 11.6C6 33 7.4 34.1 9 34.9V20.3H6.8z"/></symbol><symbol id="icon-arrow-down" viewBox="0 0 10 48"><path d="M5.5 39.4V0h-1v39.4H0L5 48l5-8.6z"/></symbol><symbol id="icon-arrow-right" viewBox="0 0 181.6 10"><path d="M181.6 5l-8.7-5v4.5H0v1h172.9V10z"/></symbol><symbol id="icon-chevron" viewBox="0 0 24.7 13.1"><path id="icon" d="M12.4 13.1L0 .7.7 0l11.7 11.6L24 0l.7.7z"/></symbol><symbol id="icon-download" viewBox="0 0 18 16"><path id="box" d="M17 10v5H1v-5H0v6h18v-6z"/><path id="arrow" d="M9 11.5l3.8-6H9.5V0h-1v5.5H5.3z"/></symbol><symbol id="icon-facebook" viewBox="0 0 6.7 13"><title>social-Asset 2</title><path id="icon" d="M4.4 3.3v1.6h2.2l-.4 2.3H4.4V13H2V7.2H0V4.9h2V3.1C1.8 1.5 2.9.2 4.4 0H5c.6 0 1.2 0 1.8.1v2.1H5.5c-1 0-1.1.4-1.1 1.1z"/></symbol><symbol id="icon-linkedin" viewBox="0 0 11.4 11.4"><title>social-Asset 4</title><path id="icon" d="M0 1.4C0 .6.6 0 1.4 0s1.4.6 1.4 1.4c0 .8-.6 1.4-1.4 1.4C.6 2.7 0 2.1 0 1.4zm.2 10V3.8h2.4v7.6H.2zm8.8 0V7.7c0-.9 0-2-1.2-2s-1.4 1-1.4 2v3.8H4V3.8h2.3v1c.4-.8 1.3-1.3 2.2-1.3 2.4 0 2.8 1.6 2.8 3.6v4.2H9z"/></symbol><symbol id="icon-twitter" viewBox="0 0 13 10.5"><title>social-Asset 3</title><path id="icon" d="M11.7 2.9c0 4.2-3.4 7.6-7.6 7.6-1.4 0-2.9-.4-4.1-1.2h.6C1.8 9.3 3 8.9 4 8.2c-1.1 0-2.1-.8-2.5-1.8H2c.2 0 .5 0 .7-.1C1.4 6.1.5 5 .5 3.7c.4.2.8.3 1.2.3C.5 3.3.2 1.7.9.5c1.4 1.7 3.3 2.7 5.5 2.8 0-.2-.1-.4-.1-.6C6.3 1.2 7.5 0 9 0c.7 0 1.4.3 1.9.8.6-.1 1.2-.4 1.7-.7-.2.6-.6 1.2-1.1 1.5.5-.1 1-.2 1.5-.4-.4.5-.8 1-1.3 1.4v.3z"/></symbol><symbol id="line" viewBox="0 0 145 1"><path fill="none" stroke-miterlimit="10" d="M0 .5h145"/></symbol><symbol id="start-arrow-small" viewBox="0 0 10 96"><path d="M5.5 87.4V0h-1v87.4H0L5 96l5-8.6z"/></symbol><symbol id="start-arrow" viewBox="0 0 10 144"><path id="arrow" d="M5.5 135.4V0h-1v135.4H0l5 8.6 5-8.6z"/></symbol><symbol id="video-arrow" viewBox="0 0 110 7.4"><path d="M110 3.7L101.2 0l1.4 3.2H0v1h102.6l-1.4 3.2z"/></symbol><symbol id="video-bent-arrow" viewBox="0 0 28.3 74.7"><path d="M25.9 63.8V0H0v1h24.9v62.8h-2.4l2.9 10.9 2.9-10.9z"/></symbol></svg>