<svg xmlns="http://www.w3.org/2000/svg"><symbol id="bent-arrow" viewBox="0 0 257.2 36.5"><style>.st0{fill:none;stroke:#000;stroke-miterlimit:10}</style><path id="line" class="st0" d="M0 .5h252.2v28.8"/><path id="arrowhead" d="M247.3 27.9l4.9 8.6 5-8.6z"/></symbol><symbol id="footer-arrow" viewBox="0 0 54 10"><path id="icon" d="M54 5l-8.6-5v4.5H0v1h45.4V10z"/></symbol><symbol id="gfoa-logo" viewBox="0 0 32 40.1"><path d="M15 39.2c0-.5.4-.9 1-.9.5 0 .9.4.9.9s-.4.9-.9.9c-.6 0-1-.4-1-.9zm.9.8c.4 0 .8-.3.8-.8 0-.4-.3-.8-.8-.8-.4 0-.8.3-.8.8 0 .4.4.8.8.8zm-.2-.3h-.2v-1.1h.5c.3 0 .4.1.4.3 0 .2-.1.3-.3.3l.3.5h-.2l-.3-.5h-.2v.5zm.2-.6c.1 0 .3 0 .3-.2 0-.1-.1-.2-.2-.2h-.2v.3h.1z"/><path d="M27.2 8.6C26 7.4 24.6 6.3 23 5.5v4.8c-.2-.4-.5-.8-.8-1.1-1-1-2.3-1.6-3.7-1.6-1.5 0-2.8.6-3.7 1.6-.3.3-.6.6-.8 1V2.7h4V0h-6.8v40h2.7v-3.4c.6.1 1.2.1 1.8.1 9 0 16.3-7.4 16.3-16.4 0-4.6-1.8-8.7-4.8-11.7zm-1.8 1.8c1.3 1.3 2.3 2.8 3 4.4.1.1.1.2.2.4h-3.4v-5l.2.2zm-7-.7c1.8 0 3.2 1.5 3.2 3.3 0 1.8-1.5 3.3-3.3 3.3H18c-.1 0-.2 0-.3-.1-.2 0-.4-.1-.6-.2-.4-.2-.7-.4-1-.7-.6-.6-1-1.4-1-2.3 0-1.8 1.5-3.3 3.3-3.3zm-2.7 24.4l-1.9-.1V22.7H18v-2.3h-4.2v-4.6c.8 1.4 2.3 2.4 4.1 2.6h.5c1.5 0 2.8-.6 3.8-1.6.3-.3.6-.7.8-1.1v5.2h2.2v-3.4h4.1v.1c.2.8.2 1.7.2 2.6 0 7.7-6.2 13.9-13.8 13.9z"/><path d="M6.8 20.3H4.7v2.3h2.1v7.6l-.2-.2c-2.5-2.5-4.1-6-4.1-9.8 0-3.8 1.5-7.3 4.1-9.8.7-.8 1.5-1.4 2.3-2V5.5c-5.3 2.7-9 8.3-9 14.7 0 4.5 1.8 8.6 4.8 11.6C6 33 7.4 34.1 9 34.9V20.3H6.8z"/></symbol><symbol id="icon-chevron" viewBox="0 0 24.7 13.1"><path id="icon" d="M12.4 13.1L0 .7.7 0l11.7 11.6L24 0l.7.7z"/></symbol><symbol id="icon-download" viewBox="0 0 18 16"><path id="box" d="M17 10v5H1v-5H0v6h18v-6z"/><path id="arrow" d="M9 11.5l3.8-6H9.5V0h-1v5.5H5.3z"/></symbol><symbol id="icon-facebook" viewBox="0 0 6.7 13"><title>social-Asset 2</title><path id="icon" d="M4.4 3.3v1.6h2.2l-.4 2.3H4.4V13H2V7.2H0V4.9h2V3.1C1.8 1.5 2.9.2 4.4 0H5c.6 0 1.2 0 1.8.1v2.1H5.5c-1 0-1.1.4-1.1 1.1z"/></symbol><symbol id="icon-linkedin" viewBox="0 0 11.4 11.4"><title>social-Asset 4</title><path id="icon" d="M0 1.4C0 .6.6 0 1.4 0s1.4.6 1.4 1.4c0 .8-.6 1.4-1.4 1.4C.6 2.7 0 2.1 0 1.4zm.2 10V3.8h2.4v7.6H.2zm8.8 0V7.7c0-.9 0-2-1.2-2s-1.4 1-1.4 2v3.8H4V3.8h2.3v1c.4-.8 1.3-1.3 2.2-1.3 2.4 0 2.8 1.6 2.8 3.6v4.2H9z"/></symbol><symbol id="icon-twitter" viewBox="0 0 13 10.5"><title>social-Asset 3</title><path id="icon" d="M11.7 2.9c0 4.2-3.4 7.6-7.6 7.6-1.4 0-2.9-.4-4.1-1.2h.6C1.8 9.3 3 8.9 4 8.2c-1.1 0-2.1-.8-2.5-1.8H2c.2 0 .5 0 .7-.1C1.4 6.1.5 5 .5 3.7c.4.2.8.3 1.2.3C.5 3.3.2 1.7.9.5c1.4 1.7 3.3 2.7 5.5 2.8 0-.2-.1-.4-.1-.6C6.3 1.2 7.5 0 9 0c.7 0 1.4.3 1.9.8.6-.1 1.2-.4 1.7-.7-.2.6-.6 1.2-1.1 1.5.5-.1 1-.2 1.5-.4-.4.5-.8 1-1.3 1.4v.3z"/></symbol><symbol id="line" viewBox="0 0 145 1"><path fill="none" stroke-miterlimit="10" d="M0 .5h145"/></symbol><symbol id="section-1-art" viewBox="0 0 217 596.3"><style>.st0{fill:none;stroke:#fff;stroke-miterlimit:10}.st1{fill:#fff}.st2,.st3{fill:none;stroke:#fff;stroke-miterlimit:10}.st2{stroke-width:10}.st3{stroke-linecap:round}</style><path class="st0" d="M96.5 215.8c-53.9-6-96-51.8-96-107.3C.5 48.9 48.9.5 108.5.5s108 48.4 108 108c0 55.5-42.1 101.4-96 107.3"/><circle class="st1" cx="108.5" cy="108.5" r="12"/><path class="st2" d="M108.5 112.3v484"/><path id="scroll-line" d="M108.5 112.3v484" stroke-dasharray="484" stroke-dashoffset="484" fill="none" stroke="#393839" stroke-miterlimit="10" stroke-width="10"/><path class="st3" d="M120.5 167.3c27.4-5.6 48-29.8 48-58.8 0-33.1-26.9-60-60-60s-60 26.9-60 60c0 29 20.6 53.2 48 58.8"/></symbol><symbol id="shape-1b" viewBox="0 0 289 816.5"><style>.st0{fill:none}.st1,.st2{fill:#393839;stroke:#393839;stroke-miterlimit:10}.st2{fill:#ece8e5}</style><path id="pattern-container" class="st0" d="M.5 409.7v262.6c0 79.6 64.5 144.2 144 144.2s144-64.6 144-144.2V409.7"/><path id="middle" class="st1" d="M.5 145.9v262.6c0 79.6 64.5 144.2 144 144.2s144-64.6 144-144.2V145.9"/><ellipse id="top" class="st2" cx="144.5" cy="144.7" rx="144" ry="144.2"/></symbol><symbol id="shape-1c" viewBox="0 0 169 504.5"><path id="pattern-container" fill="url(#halftone)" d="M.5 252.6v167.8c0 46.4 37.6 84.1 84 84.1s84-37.7 84-84.1V252.6H.5z"/><path id="middle" fill="#393839" d="M.5 84.6v167.8c0 46.4 37.6 84.1 84 84.1s84-37.7 84-84.1V84.6H.5z"/><ellipse id="top" fill="#ece8e5" cx="84.5" cy="84.6" rx="84" ry="84.1"/></symbol><symbol id="shape-1d" viewBox="0 0 121 456"><path id="pattern-container" fill="url(#halftone)" d="M.5 228.5V396c0 33.1 26.9 60 60 60s60-26.9 60-60V228.5H.5z"/><path class="middle" fill="#67c18c" d="M.5 61v167.5c0 33.1 26.9 60 60 60s60-26.9 60-60V61H.5z"/><circle class="top" fill="#ece8e5" cx="60.5" cy="60.5" r="60"/></symbol><symbol id="shape-1e" viewBox="0 0 96.5 264.3"><path id="pattern-container" fill="url(#halftone)" d="M.5 120.5v96.1c0 26.4 21.4 47.7 47.8 47.7S96 243 96 216.6v-96.1H.5z"/><path class="middle" fill="#393839" d="M.5 48.7v72.1c0 26.4 21.4 47.7 47.8 47.7S96 147.1 96 120.8V48.7H.5z"/><circle class="top" fill="#ece8e5" cx="48.2" cy="48.2" r="47.7"/></symbol><symbol id="shape-1f" viewBox="0 0 49 193.9"><path id="pattern-container" fill="url(#halftone)" d="M.5 96.6V170c0 13.2 10.7 23.9 24 23.9s24-10.7 24-23.9V96.6H.5z"/><path class="middle" fill="#393839" d="M.5 24.6V98c0 13.2 10.7 23.9 24 23.9s24-10.7 24-23.9V24.6H.5z"/><ellipse class="top" fill="#ece8e5" cx="24.5" cy="24.4" rx="24" ry="23.9"/></symbol><symbol id="shape-1g" viewBox="0 0 73 135.9"><path class="middle" fill="#393839" d="M.5 36.7v62.7c0 19.8 16.1 35.9 36 35.9s36-16.1 36-35.9V36.7H.5z"/><ellipse class="top" fill="#2e5eab" cx="36.5" cy="36.4" rx="36" ry="35.9"/></symbol><symbol id="shape-2a" viewBox="0 0 120.5 360.5"><path id="pattern-container" fill="url(#halftone)" d="M.5 178.9v121.8c0 33 26.7 59.7 59.7 59.7s59.7-26.7 59.7-59.7V178.9H.5z"/><path class="middle" fill="#393839" d="M.5 60.2V182c0 33 26.7 59.7 59.7 59.7s59.7-26.7 59.7-59.7V60.2H.5z"/><circle class="top" fill="#ece8e5" cx="60.2" cy="60.2" r="59.7"/></symbol><symbol id="shape-2b" viewBox="0 0 265 726.1"><path id="pattern-container" fill="url(#halftone)" d="M264.5 363.8v230.3c0 72.9-59.1 132-132 132S.5 667 .5 594.1V363.8h264z"/><path class="middle" fill="#393839" d="M.5 133.6v278.3c0 72.9 59.1 132 132 132s132-59.1 132-132V133.6H.5z"/><ellipse class="top" fill="#ece8e5" cx="132.5" cy="132.5" rx="132" ry="132"/></symbol><symbol id="shape-2c" viewBox="0 0 120.4 332.3"><path id="pattern-container" fill="url(#halftone)" d="M119.9 168.5H.5v104.2c0 33 26.7 59.7 59.7 59.7s59.7-26.7 59.7-59.7V168.5z"/><path class="middle" fill="#393839" d="M.5 60.7v104.2c0 33 26.7 59.7 59.7 59.7s59.7-26.7 59.7-59.7V60.7H.5z"/><circle class="top" fill="#2e5eab" cx="60.2" cy="60.2" r="59.7"/></symbol><symbol id="shape-2d" viewBox="0 0 96.5 258.2"><path id="pattern-container" fill="url(#halftone)" d="M.5 127.2v83.3c0 26.4 21.4 47.7 47.8 47.7S96 236.9 96 210.5v-83.3H.5z"/><path class="middle" fill="#393839" d="M.5 48.7V132c0 26.4 21.4 47.7 47.8 47.7S96 158.3 96 132V48.7H.5z"/><circle class="top" fill="#ece8e5" cx="48.2" cy="48.2" r="47.7"/></symbol><symbol id="shape-2e" viewBox="0 0 120.5 360.5"><path id="pattern-container" fill="url(#halftone)" d="M.5 178.9v121.8c0 33 26.7 59.7 59.7 59.7s59.7-26.7 59.7-59.7V178.9H.5z"/><path class="middle" fill="#393839" d="M.5 60.2V182c0 33 26.7 59.7 59.7 59.7s59.7-26.7 59.7-59.7V60.2H.5z"/><circle class="top" fill="#ece8e5" cx="60.2" cy="60.2" r="59.7"/></symbol><symbol id="shape-2f" viewBox="0 0 72.7 339"><path class="pattern-container" fill="url(#halftone)" d="M72.2 168.5v134.7c0 19.8-16.1 35.9-35.9 35.9S.5 323 .5 303.2V168.5h71.7z"/><path class="middle" fill="#2e5eab" d="M.5 36.4v134.7c0 19.8 16.1 35.9 35.9 35.9s35.9-16.1 35.9-35.9V36.4H.5z"/><circle class="top" fill="#ece8e5" cx="36.4" cy="36.4" r="35.9"/></symbol><symbol id="shape-3a" viewBox="0 0 72.7 339"><path class="pattern-container" fill="url(#halftone)" d="M.5 168.5v134.7C.5 323 16.6 339 36.4 339s35.9-16.1 35.9-35.9V168.4H.5z"/><path class="middle" fill="#393839" d="M.5 36.4v134.7c0 19.8 16.1 35.9 35.9 35.9s35.9-16.1 35.9-35.9V36.4H.5z"/><circle class="top" fill="#2e5eab" cx="36.4" cy="36.4" r="35.9"/></symbol><symbol id="shape-3b" viewBox="0 0 169 471.1"><path class="pattern-container" fill="url(#halftone)" d="M.5 240.5v146.6c0 46.4 37.6 84 84 84s84-37.6 84-84V240.5H.5z"/><path class="middle" fill="#393839" d="M.5 85.2v146.6c0 46.4 37.6 84 84 84s84-37.6 84-84V85.2"/><circle class="top" fill="#2e5eab" cx="84.5" cy="84.5" r="84"/></symbol><symbol id="shape-3c" viewBox="0 0 455.9 975.9"><path class="pattern-container" fill="url(#halftone)" d="M455.9 823.2V718.5h-.5V475.2H48v279.2c0 28.7 6 56 16.7 80.8L0 811.2v104.7c0 33.1 26.9 60 60 60s60-26.9 60-60v-6.1c35.5 30.1 81.5 48.3 131.7 48.3 64.5 0 122-30 159.4-76.8 25.8-6.7 44.8-30.2 44.8-58.1z"/><path class="middle" fill="#393839" d="M455.4 191.5H48v279.2c0 112.5 91.2 203.7 203.7 203.7s203.7-91.2 203.7-203.7V191.5z"/><circle class="top" fill="#2e5eab" cx="251.7" cy="204.2" r="203.7"/></symbol><symbol id="shape-3d" viewBox="0 0 120.9 226.1"><path class="middle" fill="#67c18c" d="M.5 61v104.7c0 33.1 26.9 60 60 60s60-26.9 60-60V61"/><circle class="top" fill="#2e5eab" cx="60.5" cy="60.5" r="60"/></symbol><symbol id="shape-3e" viewBox="0 0 121 226.2"><path class="middle" fill="#393839" d="M.5 61v104.7c0 33.1 26.9 60 60 60s60-26.9 60-60V61H.5z"/><circle class="top" fill="#2e5eab" cx="60.5" cy="60.5" r="60"/></symbol><symbol id="shape-4a" viewBox="0 0 190.8 456.1"><path class="pattern-container" fill="url(#halftone)" d="M.5 229.1v132.1c0 52.4 42.5 94.9 94.9 94.9s94.9-42.5 94.9-94.9V229.1H.5z"/><path class="middle" fill="#393839" d="M.5 95.4v128.5c0 52.4 42.5 94.9 94.9 94.9s94.9-42.5 94.9-94.9V95.4H.5z"/><circle class="top" fill="#ece8e5" cx="95.4" cy="95.4" r="94.9"/></symbol><symbol id="shape-4b" viewBox="0 0 335.7 840.5"><path class="pattern-container" fill="url(#halftone)" d="M335.7 600.5H288V416.8H.5v268C.5 764.2 64.9 824 144.3 824c75.8 0 138-55 143.4-129.1v121.7c0 13.3 10.7 24 24 24s24-10.8 24-24V600.5z"/><path class="middle" fill="#393839" d="M288 144.5H.5v269.1c0 79.4 64.4 139.2 143.8 139.2S288 492.5 288 413.1V144.5z"/><circle class="top" fill="#ece8e5" cx="144.3" cy="144.3" r="143.8"/></symbol><symbol id="shape-4c" viewBox="0 0 49 265"><path class="middle" fill="#393839" d="M.5 24.5v216c0 13.3 10.7 24 24 24s24-10.8 24-24v-216H.5z"/><ellipse class="top" fill="#ece8e5" cx="24.5" cy="24.5" rx="24" ry="24"/></symbol><symbol id="shape-4d" viewBox="0 0 169 457.2"><path class="pattern-container" fill="url(#halftone)" d="M.5 193v180.2c0 46.4 37.6 84 84 84s84-37.6 84-84V193H.5z"/><path class="middle" fill="#a98352" d="M.5 85.3v132.4c0 46.4 37.6 84.1 84 84.1s84-37.7 84-84.1V85.3"/><ellipse class="top" fill="#ece8e5" cx="84.5" cy="84.6" rx="84" ry="84.1"/></symbol><symbol id="shape-4e" viewBox="0 0 121 381.7"><path class="pattern-container" fill="url(#halftone)" d="M.5 193v128.7c0 33.1 26.9 60 60 60s60-26.9 60-60V193H.5z"/><path class="middle" fill="#a98352" d="M.5 61v128.7c0 33.1 26.9 60 60 60s60-26.9 60-60V61"/><circle class="top" fill="#ece8e5" cx="60.5" cy="60.5" r="60"/></symbol><symbol id="shape-4f" viewBox="0 0 121 381.7"><path class="pattern-container" fill="url(#halftone)" d="M.5 193v128.7c0 33.1 26.9 60 60 60s60-26.9 60-60V193H.5z"/><path class="middle" fill="#393839" d="M.5 61v128.7c0 33.1 26.9 60 60 60s60-26.9 60-60V61"/><circle class="top" fill="#ece8e5" cx="60.5" cy="60.5" r="60"/></symbol><symbol id="start-arrow" viewBox="0 0 10 144"><path id="arrow" d="M5.5 135.4V0h-1v135.4H0l5 8.6 5-8.6z"/></symbol></svg>